# xmcd
#
# Track frame offsets: 
#        150
#        12242
#        25226
#        37772
#        49461
#        61866
#        75823
#        87733
#        99844
#        111795
#        124729
#        137876
#        151594
#        165771
#        181068
#        195112
#
# Disc length: 2811 seconds
#
# Revision: 0
# Processed by: cddbd v1.5.2PL0 Copyright (c) Steve Scherf et al.
# Submitted via: ExactAudioCopy v0.99pb4
#
DISCID=ad0af910
DTITLE=Various Artist - Serentata a Juan Vincente Torrealba 2
DYEAR=2002
DGENRE=Latin
TTITLE0=Por El Camino Real
TTITLE1=Mujer Guayanesa
TTITLE2=Mi Cielo Eres Tú
TTITLE3=Aquella Noche
TTITLE4=Valencia
TTITLE5=Muchachita Sabanera
TTITLE6=La Potranca Zaina
TTITLE7=Pasaje No 8
TTITLE8=Los Garceros
TTITLE9=Luna Y Lejanía
TTITLE10=Mujer Llanera
TTITLE11=La Llanura
TTITLE12=Rosa Angelina
TTITLE13=Solito Con Las Estrellas
TTITLE14=Sueño Azul
TTITLE15=Concierto En La Llanura
EXTD=
EXTT0=
EXTT1=
EXTT2=
EXTT3=
EXTT4=
EXTT5=
EXTT6=
EXTT7=
EXTT8=
EXTT9=
EXTT10=
EXTT11=
EXTT12=
EXTT13=
EXTT14=
EXTT15=
PLAYORDER=
